<?xml version="1.0" encoding="UTF-8" standalone="no"?>
<!-- Created with Inkscape (http://www.inkscape.org/) -->

<svg
   xmlns:dc="http://purl.org/dc/elements/1.1/"
   xmlns:cc="http://creativecommons.org/ns#"
   xmlns:rdf="http://www.w3.org/1999/02/22-rdf-syntax-ns#"
   xmlns:svg="http://www.w3.org/2000/svg"
   xmlns="http://www.w3.org/2000/svg"
   xmlns:sodipodi="http://sodipodi.sourceforge.net/DTD/sodipodi-0.dtd"
   xmlns:inkscape="http://www.inkscape.org/namespaces/inkscape"
   width="1700"
   height="2000"
   id="svg2"
   version="1.1"
   inkscape:version="0.48.4 r9939"
   sodipodi:docname="INSCOM.svg">
  <defs
     id="defs4" />
  <sodipodi:namedview
     id="base"
     pagecolor="#ffffff"
     bordercolor="#666666"
     borderopacity="1.0"
     inkscape:pageopacity="0.0"
     inkscape:pageshadow="2"
     inkscape:zoom="0.24748737"
     inkscape:cx="2137.457"
     inkscape:cy="1281.1298"
     inkscape:document-units="px"
     inkscape:current-layer="layer1"
     showgrid="false"
     inkscape:window-width="1600"
     inkscape:window-height="838"
     inkscape:window-x="-8"
     inkscape:window-y="-8"
     inkscape:window-maximized="1" />
  <metadata
     id="metadata7">
    <rdf:RDF>
      <cc:Work
         rdf:about="">
        <dc:format>image/svg+xml</dc:format>
        <dc:type
           rdf:resource="http://purl.org/dc/dcmitype/StillImage" />
        <dc:title></dc:title>
      </cc:Work>
    </rdf:RDF>
  </metadata>
  <g
     inkscape:label="Layer 1"
     inkscape:groupmode="layer"
     id="layer1"
     transform="translate(0,947.63782)">
    <g
       id="g3862"
       transform="matrix(1.2540933,0,0,1.2540933,-1486.1782,-706.05376)">
      <path
         style="fill:#fbcc30;fill-opacity:1;stroke:#bc7631;stroke-width:5;stroke-linecap:butt;stroke-linejoin:miter;stroke-miterlimit:4;stroke-opacity:1;stroke-dasharray:none"
         d="m 2520.5714,166.6479 c -154.8689,202.01955 -241.0666,464.35324 -142.8571,765.71429 -166.6667,58.4117 -333.3333,153.17831 -504.2857,428.57141 -170.9524,-275.3931 -337.6191,-370.15971 -504.2857,-428.57141 98.2095,-301.36105 12.0117,-563.69474 -142.8572,-765.71429 355.2963,-432.34744 930.8938,-440.46788 1294.2857,0 z"
         id="path2998"
         inkscape:connector-curvature="0"
         sodipodi:nodetypes="cccccc" />
      <g
         id="g3844">
        <path
           style="fill:#adaead;fill-opacity:1;stroke:none"
           d="m 1876.8527,-96.90625 c -3.5516,-0.02024 -7.1041,-0.08881 -10.6563,-0.0625 -6.4376,0.04769 -12.8832,0.155282 -19.3125,0.375 -6.4293,0.219718 -12.8634,0.546033 -19.2812,0.9375 -6.4179,0.391467 -12.8155,0.874563 -19.2188,1.4375 -6.4033,0.562937 -12.8019,1.203372 -19.1875,1.9375 -6.3856,0.734128 -12.7602,1.532461 -19.125,2.4375 -6.3647,0.905039 -12.7217,1.924329 -19.0625,3 -6.3408,1.075671 -12.655,2.222726 -18.9687,3.46875 -6.3137,1.246024 -12.6228,2.583903 -18.9063,4 -6.2834,1.416097 -12.5624,2.91411 -18.8125,4.5 -6.2501,1.58589 -12.4739,3.244596 -18.6875,5 -6.2136,1.755404 -12.3885,3.606611 -18.5625,5.53125 -6.1739,1.924639 -12.3375,3.937656 -18.4687,6.03125 -6.1312,2.093594 -12.2585,4.26898 -18.3438,6.53125 -6.0853,2.26227 -12.1199,4.600583 -18.1562,7.03125 -6.0363,2.430667 -12.0472,4.963716 -18.0313,7.5625 -5.9841,2.598784 -11.9461,5.264629 -17.875,8.03125 -5.9288,2.766621 -11.8483,5.628321 -17.7187,8.5625 -5.8704,2.934179 -11.6912,5.929792 -17.5,9.03125 -5.8089,3.101458 -11.5996,6.2940426 -17.3438,9.5625 -5.7441,3.2684574 -11.4486,6.6273228 -17.125,10.0625 -5.6763,3.435177 -11.3321,6.960882 -16.9375,10.5625 -5.6054,3.601618 -11.1562,7.263471 -16.6875,11.03125 -5.5313,3.767779 -11.0459,7.62884 -16.5,11.5625 -5.4541,3.93366 -10.845,7.963237 -16.2187,12.0625 -5.3738,4.099263 -10.7097,8.266665 -16,12.53125 -5.2903,4.264585 -10.5463,8.632871 -15.75,13.0625 -5.2037,4.429629 -10.3548,8.936858 -15.4688,13.53125 -5.1139,4.594392 -10.1977,9.27237 -15.2187,14.03125 -5.0211,4.75888 -9.9812,9.57692 -14.9063,14.5 -4.925,4.92308 -9.7991,9.94424 -14.625,15.03125 -4.8259,5.08701 -9.6201,10.24935 -14.3437,15.5 -4.7237,5.25065 -9.3818,10.58598 -14,16 4.4541,6.32289 8.8215,12.6922 13.0937,19.09375 4.2723,6.40155 8.4417,12.83194 12.5313,19.3125 4.0895,6.48056 8.094,13.00257 12,19.5625 3.906,6.55993 7.7159,13.17284 11.4375,19.8125 3.7216,6.63966 7.3385,13.31151 10.875,20.03125 3.5364,6.71974 6.9933,13.48107 10.3437,20.28125 3.3504,6.80018 6.6177,13.65028 9.7813,20.53125 3.1636,6.88097 6.2115,13.78788 9.1875,20.75 2.9759,6.96212 5.8688,13.95637 8.6562,21 2.7875,7.04363 5.4956,14.12451 8.0938,21.25 2.5981,7.12549 5.0919,14.2923 7.5,21.5 2.408,7.2077 4.7204,14.45973 6.9375,21.75 2.2171,7.29027 4.3497,14.6268 6.375,22 2.0253,7.3732 3.9485,14.79352 5.7812,22.25 1.8328,7.45648 3.5482,14.95988 5.1875,22.5 1.6393,7.54012 3.1799,15.12589 4.625,22.75 1.4451,7.62411 2.8125,15.29154 4.0625,23 1.2501,7.70846 2.3834,15.45684 3.4375,23.25 0.05,0.37257 0.075,0.75223 0.125,1.125 l 416.9688,0 0,-646.125 z"
           id="path3803"
           inkscape:connector-curvature="0" />
        <path
           style="fill:#1f92c1;fill-opacity:1;stroke:none"
           d="m 1876.8527,-96.90625 0,646.125 416.3437,0 c 0.05,-0.37277 0.075,-0.75243 0.125,-1.125 1.0542,-7.79316 2.2187,-15.54154 3.4688,-23.25 1.25,-7.70846 2.5861,-15.37589 4.0312,-23 1.4451,-7.62411 2.9857,-15.20988 4.625,-22.75 1.6393,-7.54012 3.386,-15.04352 5.2188,-22.5 1.8327,-7.45648 3.7559,-14.8768 5.7812,-22.25 2.0253,-7.3732 4.1267,-14.70973 6.3438,-22 2.2171,-7.29027 4.5294,-14.5423 6.9375,-21.75 2.408,-7.2077 4.9331,-14.37451 7.5312,-21.5 2.5982,-7.12549 5.2751,-14.20637 8.0625,-21.25 2.7875,-7.04363 5.6803,-14.03788 8.6563,-21 2.9759,-6.96212 6.0551,-13.86903 9.2187,-20.75 3.1636,-6.88097 6.3996,-13.73107 9.75,-20.53125 3.3504,-6.80018 6.8073,-13.56151 10.3438,-20.28125 3.5364,-6.71974 7.1534,-13.39159 10.875,-20.03125 3.7216,-6.63966 7.5315,-13.25257 11.4375,-19.8125 3.906,-6.55993 7.9104,-13.08194 12,-19.5625 4.0895,-6.48056 8.2902,-12.91095 12.5625,-19.3125 4.2722,-6.40155 8.6083,-12.77086 13.0625,-19.09375 -5.0498,-5.60478 -10.1396,-11.10745 -15.2813,-16.53125 -5.1417,-5.4238 -10.332,-10.75689 -15.5625,-16 -5.2305,-5.24311 -10.4963,-10.40605 -15.8125,-15.46875 -5.3161,-5.0627 -10.6638,-10.02368 -16.0625,-14.90625 -5.3986,-4.882569 -10.8344,-9.703533 -16.3125,-14.40625 -5.478,-4.702717 -11.0082,-9.289357 -16.5625,-13.8125 -5.5543,-4.523143 -11.1538,-8.968651 -16.7812,-13.3125 -5.6274,-4.343849 -11.2714,-8.585166 -16.9688,-12.75 -5.6974,-4.164834 -11.4232,-8.263901 -17.1875,-12.25 -5.7642,-3.986099 -11.5782,-7.879857 -17.4062,-11.6875 -5.828,-3.807643 -11.6739,-7.526783 -17.5625,-11.15625 -5.8886,-3.629467 -11.804,-7.1734298 -17.75,-10.625 -5.9461,-3.4515702 -11.9371,-6.7885473 -17.9375,-10.0625 -6.0004,-3.2739527 -12.0109,-6.465885 -18.0625,-9.5625 -6.0516,-3.096615 -12.1504,-6.111694 -18.25,-9.03125 -6.0997,-2.919556 -12.1992,-5.757223 -18.3438,-8.5 -6.1446,-2.742777 -12.3136,-5.402473 -18.5,-7.96875 -6.1864,-2.566277 -12.3999,-5.047443 -18.625,-7.4375 -6.225,-2.390057 -12.4581,-4.692134 -18.7187,-6.90625 -6.2606,-2.214116 -12.5508,-4.336546 -18.8438,-6.375 -6.293,-2.038454 -12.6152,-3.980678 -18.9375,-5.84375 -6.3223,-1.863072 -12.6515,-3.624531 -19,-5.3125 -6.3484,-1.687969 -12.691,-3.299354 -19.0625,-4.8125 -6.3714,-1.513146 -12.7649,-2.942648 -19.1562,-4.28125 -6.3914,-1.338602 -12.7795,-2.585662 -19.1875,-3.75 -6.4081,-1.164338 -12.8283,-2.228397 -19.25,-3.21875 -6.4217,-0.990353 -12.8491,-1.902102 -19.2813,-2.71875 -6.4321,-0.816648 -12.8729,-1.544279 -19.3125,-2.1875 -6.4395,-0.643221 -12.9,-1.217425 -19.3437,-1.6875 -6.4438,-0.470075 -12.8677,-0.859042 -19.3125,-1.15625 -6.4449,-0.297208 -12.901,-0.50038 -19.3438,-0.625 -2.8877,-0.05586 -5.7713,-0.01481 -8.6562,-0.03125 z"
           id="path3781"
           inkscape:connector-curvature="0" />
        <path
           style="fill:#1f92c1;fill-opacity:1;stroke:none"
           d="m 1876.8527,548.8125 -417,0 c 1.016,7.55709 1.95,15.14422 2.7812,22.78125 0.8575,7.87822 1.6213,15.78636 2.2813,23.75 0.6599,7.96364 1.2259,15.98184 1.6875,24.03125 0.4616,8.04941 0.8313,16.14572 1.0937,24.28125 0.2624,8.13553 0.4063,16.30924 0.4688,24.53125 0.062,8.22201 0.045,16.4724 -0.094,24.78125 -0.1384,8.30885 -0.3788,16.66646 -0.7188,25.0625 -0.34,8.39604 -0.8013,16.82891 -1.3437,25.3125 -0.5425,8.48359 -1.1918,17.02225 -1.9375,25.59375 -0.7458,8.5715 -1.5814,17.184 -2.5313,25.84375 -0.9498,8.65975 -2.0015,17.37663 -3.1562,26.125 -1.1548,8.74837 -2.4208,17.53766 -3.7813,26.375 -1.3605,8.83734 -2.8079,17.72958 -4.375,26.65625 -1.5671,8.92667 -3.2568,17.8899 -5.0312,26.90625 16.3335,8.34398 32.6607,16.60363 49.0312,25.09375 8.1853,4.24506 16.367,8.53218 24.5938,12.9375 8.2267,4.40532 16.4915,8.91445 24.7812,13.5625 8.2898,4.64805 16.6258,9.43298 25,14.40625 8.3743,4.97327 16.801,10.15028 25.2813,15.53125 8.4803,5.38097 17.0172,10.9726 25.625,16.84375 8.6078,5.87115 17.2744,11.99365 26.0312,18.43745 8.7568,6.444 17.604,13.2136 26.5313,20.3126 8.9273,7.0988 17.9432,14.5383 27.0625,22.375 9.1193,7.8364 18.3234,16.062 27.6562,24.7187 9.3329,8.6567 18.7759,17.7532 28.3438,27.3125 9.5678,9.5593 19.2694,19.5807 29.0937,30.125 9.8244,10.5443 19.7726,21.6068 29.875,33.2188 10.1024,11.6117 20.3481,23.7693 30.75,36.5312 10.4019,12.7619 20.9646,26.1306 31.6875,40.125 0.1075,-0.1403 0.2051,-0.2661 0.3125,-0.4062 l 0,-703.1563 z"
           id="path3800"
           inkscape:connector-curvature="0" />
        <path
           style="fill:#adaead;fill-opacity:1;stroke:none"
           d="m 1876.8527,548.8125 0,703.1563 c 10.6122,-13.8418 21.0773,-27.0848 31.375,-39.7188 10.4019,-12.7619 20.6476,-24.9194 30.75,-36.5312 10.1024,-11.612 20.0506,-22.6745 29.875,-33.2188 9.8243,-10.5443 19.5259,-20.5657 29.0937,-30.125 9.5679,-9.5593 19.0109,-18.6558 28.3438,-27.3125 9.3328,-8.6567 18.5682,-16.8823 27.6875,-24.7187 9.1193,-7.8367 18.1352,-15.2762 27.0625,-22.375 8.9273,-7.0991 17.7432,-13.8686 26.5,-20.3126 8.7568,-6.4438 17.4547,-12.5663 26.0625,-18.43745 8.6078,-5.87115 17.1447,-11.46278 25.625,-16.84375 8.4803,-5.38097 16.907,-10.55798 25.2812,-15.53125 8.3743,-4.97327 16.679,-9.7582 24.9688,-14.40625 8.2897,-4.64805 16.5545,-9.15718 24.7812,-13.5625 8.2268,-4.40532 16.4085,-8.69244 24.5938,-12.9375 16.3705,-8.49012 32.6977,-16.74977 49.0312,-25.09375 -1.7744,-9.01635 -3.4329,-17.97958 -5,-26.90625 -1.5671,-8.92667 -3.0457,-17.81891 -4.4062,-26.65625 -1.3605,-8.83734 -2.6265,-17.62663 -3.7813,-26.375 -1.1547,-8.74837 -2.2064,-17.46525 -3.1562,-26.125 -0.9499,-8.65975 -1.7855,-17.27225 -2.5313,-25.84375 -0.7457,-8.5715 -1.395,-17.11016 -1.9375,-25.59375 -0.5424,-8.48359 -0.9725,-16.91646 -1.3125,-25.3125 -0.34,-8.39604 -0.5803,-16.75365 -0.7187,-25.0625 -0.1384,-8.30885 -0.1875,-16.55924 -0.125,-24.78125 0.062,-8.22201 0.2376,-16.39572 0.5,-24.53125 0.2624,-8.13553 0.6009,-16.23184 1.0625,-24.28125 0.4616,-8.04941 1.0275,-16.06761 1.6875,-24.03125 0.6599,-7.96364 1.4238,-15.87178 2.2812,-23.75 0.8312,-7.63703 1.7652,-15.22416 2.7813,-22.78125 l -416.375,0 z"
           id="path3790"
           inkscape:connector-curvature="0" />
      </g>
      <path
         sodipodi:nodetypes="ccssccscc"
         inkscape:connector-curvature="0"
         id="path3850"
         d="m 2107.2801,258.375 c -40.3285,24.81947 -29.5275,53.57142 -38.375,80.8125 l -522.7188,500.875 c -9.9578,9.54171 -20.9687,19.14362 -20.9687,34.34375 0,20.95723 16.2873,37.96875 36.4062,37.96875 10.3769,-0.87409 19.7643,-6.69873 26.4375,-11.53125 L 2153.7488,432.125 c 16.265,-13.47686 60.3168,2.5653 78.7813,-26.25 z"
         style="fill:#ffffff;fill-opacity:1;stroke:none" />
      <path
         inkscape:connector-curvature="0"
         id="path3860"
         d="m 1367.1429,166.6479 280,362.85714 L 1630,420.93361 l 460,434.28572 -11.4286,-102.85715 182.8572,140 -245.7143,-334.28571 11.4286,122.85714 -482.8572,-454.28571 8.5714,85.71428 z"
         style="fill:#ffffff;stroke:none" />
      <g
         transform="translate(800.57586,0)"
         id="g3836">
        <path
           id="path3813"
           d="m 1300.0134,-19.09375 0,84.1875 -64.125,0 0,71.65625 64.125,0 0,84.1875 -185.75,0 0,-240.03125 185.75,0 z"
           style="fill:#fbcc30;fill-opacity:1;stroke:#bc7631;stroke-width:2.96540093;stroke-miterlimit:4;stroke-opacity:1;stroke-dasharray:none"
           inkscape:connector-curvature="0" />
        <path
           inkscape:connector-curvature="0"
           style="fill:#fbcc30;fill-opacity:1;stroke:#bc7631;stroke-width:2.96540093;stroke-miterlimit:4;stroke-opacity:1;stroke-dasharray:none"
           d="m 845.69197,-19.09375 0,84.1875 64.125,0 0,71.65625 -64.125,0 0,84.1875 185.75003,0 0,-240.03125 -185.75003,0 z"
           id="path3815" />
        <rect
           style="fill:#fbcc30;fill-opacity:1;stroke:#bc7631;stroke-width:3;stroke-miterlimit:4;stroke-opacity:1;stroke-dasharray:none"
           id="rect3805"
           width="97.142906"
           height="897.14288"
           x="1024.2812"
           y="-61.923534"
           ry="48.571453" />
        <rect
           style="fill:#fbcc30;fill-opacity:1;stroke:#bc7631;stroke-width:3;stroke-miterlimit:4;stroke-opacity:1;stroke-dasharray:none"
           id="rect3817"
           width="171.42857"
           height="71.428574"
           x="987.13843"
           y="315.21933"
           ry="35.714287" />
        <path
           style="fill:#fbcc30;fill-opacity:1;stroke:#bc7631;stroke-width:3;stroke-miterlimit:4;stroke-opacity:1;stroke-dasharray:none"
           d="m 1074.2768,836.9375 c -107.30105,0 -194.28126,61.38309 -194.28126,137.125 0,75.7419 86.98021,137.1563 194.28126,137.1563 107.301,0 194.2812,-61.4144 194.2812,-137.1563 0,-75.74191 -86.9802,-137.125 -194.2812,-137.125 z m -58.5625,61.4375 c 23.6087,0 44.677,10.78358 58.5625,27.71875 13.8855,-16.93517 34.9538,-27.71875 58.5625,-27.71875 41.8158,0 75.7187,33.87165 75.7187,75.6875 0,41.8158 -33.9029,75.7187 -75.7187,75.7187 -23.6087,0 -44.677,-10.7835 -58.5625,-27.7187 -13.8855,16.9352 -34.9538,27.7187 -58.5625,27.7187 -41.81586,0 -75.71876,-33.9029 -75.71876,-75.7187 0,-41.81585 33.9029,-75.6875 75.71876,-75.6875 z"
           id="path3825"
           inkscape:connector-curvature="0" />
        <rect
           ry="35.714287"
           y="772.36218"
           x="987.13843"
           height="71.428574"
           width="171.42857"
           id="rect3823"
           style="fill:#fbcc30;fill-opacity:1;stroke:#bc7631;stroke-width:3;stroke-miterlimit:4;stroke-opacity:1;stroke-dasharray:none" />
      </g>
      <path
         sodipodi:nodetypes="sccccsccsssccccs"
         inkscape:connector-curvature="0"
         id="path3855"
         d="m 2358.6409,117.25743 c -2.1795,0.0193 -4.204,4.00832 -7.5,10.28125 -11.9505,22.65553 -27.5626,39.77166 -67,45.09375 7.3214,-16.25613 4.8637,-31.4044 -12.25,-44.125 -12.8934,-8.8124 -11.9232,-8.43673 -11.5,4.46875 0.4146,14.83529 -5.4978,30.70049 -20.875,31.375 -33.6424,1.47571 -57.8877,25.04957 -73.9375,50.40625 l 0.1875,0.0937 c -10.4556,14.64666 -16.6562,32.6989 -16.6562,52.2188 0,48.97127 38.8433,88.65625 86.75,88.65625 39.405,0 71.071,-30.89079 83.25,-63.625 10.8737,-29.22608 57.9565,-63.02664 49.8438,-94.53125 -2.7778,-10.86756 -3.2112,-9.10028 -8.0313,-1.375 -11.0576,17.62631 -27.134,26.63723 -47.0938,32 10.0384,-28.24064 65.9926,-64.64187 51.9688,-100.5 -3.1665,-7.36229 -5.2331,-10.45455 -7.1563,-10.4375 z"
         style="fill:#ffffff;stroke:none" />
    </g>
  </g>
</svg>
